<svg width="208" height="64" viewBox="0 0 208 64" fill="none" xmlns="http://www.w3.org/2000/svg">
<g clip-path="url(#clip0_202_2)">
<path d="M37.3337 2.66675V29.3334M37.3337 56.0001V29.3334M56.1898 10.4772L18.4775 48.1896M37.3337 29.3334L10.667 29.3334M56.1898 48.1896L18.4775 10.4772" stroke="white" stroke-width="6" stroke-linecap="round" stroke-linejoin="round"/>
</g>
<path d="M99.53 47H93.26L74.395 18.455V47H68.125V8.72H74.395L93.26 37.21V8.72H99.53V47ZM114.034 13.835V25.055H127.234V30.17H114.034V41.885H128.884V47H107.764V8.72H128.884V13.835H114.034ZM154.151 27.915L166.031 47H158.991L150.356 33.14L142.271 47H135.286L147.166 27.915L135.231 8.775H142.271L150.961 22.745L159.101 8.775H166.086L154.151 27.915ZM195.96 39.19H179.955L177.205 47H170.66L184.355 8.72H191.615L205.31 47H198.71L195.96 39.19ZM194.2 34.075L187.985 16.31L181.715 34.075H194.2Z" fill="white"/>
<defs>
<clipPath id="clip0_202_2">
<rect width="64" height="64" fill="white"/>
</clipPath>
</defs>
</svg>
